HIERARCHY
ROOT Hips
{
  OFFSET 0.382225 96.6805 0.598322
  CHANNELS 6 Xposition Yposition Zposition Zrotation Xrotation Yrotation
  JOINT Spine
  {
    OFFSET 10.8089 -0.851416 0
    CHANNELS 3 Zrotation Xrotation Yrotation
    JOINT Spine1
    {
      OFFSET 18.8753 3.80116 0
      CHANNELS 3 Zrotation Xrotation Yrotation
      JOINT Spine2
      {
        OFFSET 13.4073 0.420477 0
        CHANNELS 3 Zrotation Xrotation Yrotation
        JOINT LeftShoulder
        {
          OFFSET 11.8837 -2.73209 -3.78198
          CHANNELS 3 Zrotation Xrotation Yrotation
          JOINT LeftArm
          {
            OFFSET 15.7849 0 -2.35849e-005
            CHANNELS 3 Zrotation Xrotation Yrotation
            JOINT LeftForeArm
            {
              OFFSET 30.3399 0 0
              CHANNELS 3 Zrotation Xrotation Yrotation
              JOINT LeftHand
              {
                OFFSET 26.9751 0 2.45913e-005
                CHANNELS 3 Zrotation Xrotation Yrotation
                End Site
                {
                  OFFSET 8 0 0
                }
              }
            }
          }
        }
        JOINT RightShoulder
        {
          OFFSET 11.8838 -2.7321 3.782
          CHANNELS 3 Zrotation Xrotation Yrotation
          JOINT RightArm
          {
            OFFSET -15.7848 0 -1.07056e-005
            CHANNELS 3 Zrotation Xrotation Yrotation
            JOINT RightForeArm
            {
              OFFSET -30.34 1.02096e-005 -2.53607e-005
              CHANNELS 3 Zrotation Xrotation Yrotation
              JOINT RightHand
              {
                OFFSET -26.9752 2.07668e-005 0
                CHANNELS 3 Zrotation Xrotation Yrotation
                End Site
                {
                  OFFSET -8 0 0
                }
              }
            }
          }
        }
        JOINT Neck
        {
          OFFSET 16.5588 -0.355318 0
          CHANNELS 3 Zrotation Xrotation Yrotation
          JOINT Head
          {
            OFFSET 9.28361 0.364157 0
            CHANNELS 3 Zrotation Xrotation Yrotation
            End Site
            {
              OFFSET 0 0 0
            }
          }
        }
      }
    }
  }
  JOINT LeftUpLeg
  {
    OFFSET -1.44883 -0.531424 -9.00581
    CHANNELS 3 Zrotation Xrotation Yrotation
    JOINT LeftLeg
    {
      OFFSET -42.572 0.0788889 -0.011964
      CHANNELS 3 Zrotation Xrotation Yrotation
      JOINT LeftFoot
      {
        OFFSET -40.1967 0 0
        CHANNELS 3 Zrotation Xrotation Yrotation
				JOINT LeftToe
        {
          OFFSET -10.4538 -16.5779 0.0801563
          CHANNELS 3 Zrotation Xrotation Yrotation
          End Site
          {
            OFFSET -1.0 -1.0 0.0
          }
        }
      }
    }
  }
  JOINT RightUpLeg
  {
    OFFSET -1.44865 -0.531427 9.0058
    CHANNELS 3 Zrotation Xrotation Yrotation
    JOINT RightLeg
    {
      OFFSET 42.5723 -3.24776e-005 0
      CHANNELS 3 Zrotation Xrotation Yrotation
      JOINT RightFoot
      {
        OFFSET 40.1968 0 -1.14003e-005
        CHANNELS 3 Zrotation Xrotation Yrotation
				JOINT RightToe
        {
          OFFSET 10.4538 16.5778 -0.0801573
          CHANNELS 3 Zrotation Xrotation Yrotation
          End Site
          {
            OFFSET -1.0 -1.0 0.0
          }
        }
      }
    }
  }
}
MOTION
Frames:	10
Frame Time:	0.0333333
-167.312 94.8435 -147.057 -89.3265 -88.4789 -179.395 -4.54461 -2.55516 1.2091 14.0531 0.000510797 0.00100043 2.7794 1.93418e-006 1.65929e-005 -3.13854 17.5559 85.5995 -10.3562 -3.60892 5.81834 1.92186 -10.3214 9.38282 -32.719 -63.8661 -45.2075 179.52 8.68973 89.7149 -9.86574 -19.6916 -1.53938 0.000361698 1.30635 0.203221 50.179 -86.0966 48.1895 -23.508 4.63459e-006 -5.90926e-006 12.9198 -13.8568 2.78685 6.51231 23.8341 -10.2824 -16.3525 -5.6681 0.713623 9.95079 4.22323 9.54174 -90 0 0 -171.985 11.7417 -9.39181 -16.7369 -5.51062 0.360935 9.45629 4.82666 7.4357 -90 0 0
-167.331 94.7926 -147.074 -92.0949 -88.3441 177.83 -4.26578 -3.26969 1.41652 10.9964 0.141674 0.299421 2.7794 1.93418e-006 1.65929e-005 -5.09166 25.8043 90.0404 -22.2531 -3.16504 -1.59435 -0.179683 2.33312 10.7954 -69.623 -74.974 -81.6139 178.66 12.4362 89.5863 -15.7758 -21.4651 -1.3073 0.00112661 1.08774 0.19766 71.4438 -87.8023 69.9504 -23.508 4.63459e-006 -5.90926e-006 18.7893 -13.6449 1.28176 6.66332 23.9095 -10.3813 -16.7745 -5.65898 0.66267 10.1603 4.20052 9.57444 -90 0 0 -171.777 11.5762 -9.38207 -17.2647 -5.49113 0.280514 9.69188 4.81631 7.43865 -90 0 0
-167.35 94.791 -147.109 -89.6961 -88.268 -179.742 -4.20513 -3.24336 1.44277 10.942 0.144046 0.304817 2.7794 1.93418e-006 1.65929e-005 -5.13121 25.931 90.1076 -22.3052 -3.13549 -1.71876 -0.109074 1.96462 10.7505 -68.1299 -74.9036 -80.1455 178.637 12.5704 89.5498 -15.8668 -21.5413 -1.32019 0.000240842 1.3511 0.195033 74.4046 -87.7776 73.0404 -23.508 4.63459e-006 -5.90926e-006 18.7321 -13.6573 1.22341 6.80921 23.9581 -10.449 -16.8358 -5.65822 0.654943 10.1642 4.20969 9.58502 -90 0 0 -171.687 11.4826 -9.32594 -17.2774 -5.49037 0.278631 9.67604 4.81014 7.42339 -90 0 0
-167.361 94.7906 -147.127 -88.2919 -88.1575 -178.304 -4.18632 -3.25607 1.43003 10.999 0.142997 0.302441 2.7794 1.93418e-006 1.65929e-005 -5.16432 26.0559 90.153 -22.2875 -3.20205 -1.78917 -0.166812 2.26298 10.7869 -69.2147 -74.9074 -81.1688 178.612 12.6422 89.5742 -16.1162 -21.4624 -1.48757 -0.000150656 1.48316 0.1926 79.1684 -87.798 77.79 -23.508 4.63459e-006 -5.90926e-006 18.5302 -13.6051 1.21174 6.8984 24.0973 -10.5245 -16.8742 -5.65907 0.650353 10.1862 4.18429 9.59738 -90 0 0 -171.634 11.4215 -9.27749 -17.2525 -5.48992 0.277424 9.63933 4.77308 7.41637 -90 0 0
-167.36 94.7907 -147.155 -86.5917 -88.0828 -176.623 -4.12557 -3.2524 1.4785 10.9923 0.140686 0.297195 2.7794 1.93418e-006 1.65929e-005 -5.22819 26.1785 90.2915 -22.3552 -3.21238 -1.9499 -0.113807 1.99571 10.7543 -68.4582 -74.8195 -80.3771 178.604 12.6646 89.5822 -16.0046 -21.5908 -1.55742 0.00112155 1.12594 0.190325 69.0819 -87.7115 67.6572 -23.508 4.63459e-006 -5.90926e-006 18.4177 -13.5307 1.15634 6.94378 24.1035 -10.4899 -16.8698 -5.66066 0.650691 10.1768 4.27964 9.58662 -90 0 0 -171.505 11.4326 -9.29831 -17.3054 -5.48957 0.276416 9.63937 4.66338 7.41225 -90 0 0
-167.361 94.7901 -147.204 -85.2958 -88.1137 -175.311 -4.14855 -3.34051 1.47645 11.0396 0.139795 0.295171 2.7794 1.93418e-006 1.65929e-005 -5.27553 26.2939 90.3831 -22.5065 -3.15069 -2.08158 -0.223134 2.55743 10.8231 -71.2145 -75.0159 -83.1603 178.603 12.6961 89.5622 -16.0119 -21.6823 -1.65575 4.47875e-005 1.48317 0.188296 81.9058 -87.9508 80.617 -23.508 4.63459e-006 -5.90926e-006 18.3642 -13.4513 1.14889 7.0691 24.0226 -10.5163 -16.9378 -5.66254 0.642283 10.1705 4.26869 9.57946 -90 0 0 -171.441 11.4571 -9.28359 -17.3033 -5.48908 0.274756 9.61014 4.6701 7.40681 -90 0 0
-167.359 94.7868 -147.209 -84.8061 -88.0647 -174.807 -4.10616 -3.38362 1.49071 10.9743 0.142641 0.301624 2.7794 1.93418e-006 1.65929e-005 -5.32276 26.4716 90.4443 -22.579 -3.23203 -2.12857 -0.158827 2.22457 10.7822 -69.2396 -75.02 -81.0089 178.612 12.689 89.534 -15.7827 -21.7569 -1.60614 0.000874314 1.26928 0.186409 78.4535 -87.8812 77.1495 -23.508 4.63459e-006 -5.90926e-006 18.4417 -13.4061 1.06673 7.11862 24.078 -10.5604 -16.9703 -5.66424 0.638354 10.1888 4.23361 9.59297 -90 0 0 -171.407 11.3899 -9.25438 -17.3244 -5.48821 0.271511 9.60828 4.70676 7.40291 -90 0 0
-167.357 94.8332 -147.231 -81.4607 -88.0319 -171.459 -4.38504 -2.7056 1.35739 13.9176 0.0071039 0.0140751 2.7794 1.93418e-006 1.65929e-005 -3.24457 18.6221 85.8484 -10.9222 -3.73411 5.29435 1.8433 -9.76326 9.44217 -33.7909 -64.473 -46.2756 179.397 9.23957 89.6856 -10.1749 -20.0618 -1.94762 0.00088079 1.31323 0.184721 54.243 -86.0415 52.3057 -23.508 4.63459e-006 -5.90926e-006 12.7665 -13.6656 2.47574 7.04408 24.1029 -10.4937 -16.582 -5.66524 0.684829 9.97758 4.29214 9.5742 -90 0 0 -171.483 11.3936 -9.23241 -16.9015 -5.50373 0.335655 9.38263 4.69388 7.38269 -90 0 0
-167.356 94.8324 -147.249 -80.98 -88.0243 -170.979 -4.36912 -2.73047 1.38461 13.8648 0.00966374 0.0191706 2.7794 1.93418e-006 1.65929e-005 -3.24417 18.6108 85.8463 -10.8027 -3.69655 5.33462 1.83986 -9.73898 9.44473 -33.8425 -64.516 -46.3314 179.375 9.27351 89.7522 -10.14 -20.1089 -2.05455 0.000506195 1.48323 0.183217 58.1142 -86.1793 56.1902 -23.508 4.63459e-006 -5.90926e-006 12.8933 -13.7286 2.39236 7.08404 24.0829 -10.4953 -16.6036 -5.66499 0.682291 9.97646 4.30119 9.57056 -90 0 0 -171.443 11.3707 -9.21865 -16.9319 -5.5025 0.331075 9.38614 4.7268 7.37165 -90 0 0
-167.354 94.7797 -147.237 -83.5331 -88.0196 -173.535 -4.04219 -3.48046 1.59865 10.7447 0.152594 0.324323 2.7794 1.93418e-006 1.65929e-005 -5.42662 26.867 90.5729 -22.6983 -2.90102 -2.15945 -0.150067 2.17894 10.7766 -71.3907 -75.0767 -83.2982 178.516 12.9844 89.6206 -15.7109 -21.8987 -1.65391 0.0015499 1.21462 0.181848 80.704 -87.6713 79.2992 -23.508 4.63459e-006 -5.90926e-006 18.9644 -13.5686 0.758444 7.21587 24.0337 -10.553 -17.0673 -5.65412 0.626448 10.2259 4.33679 9.58018 -90 0 0 -171.292 11.3788 -9.26295 -17.3993 -5.48523 0.260232 9.62047 4.66675 7.40824 -90 0 0
